<?xml version="1.0" encoding="utf-8"?>
<!-- Generator: Adobe Illustrator 25.2.1, SVG Export Plug-In . SVG Version: 6.00 Build 0)  -->
<svg version="1.1" id="Layer_1" xmlns="http://www.w3.org/2000/svg" xmlns:xlink="http://www.w3.org/1999/xlink" x="0px" y="0px"
	 viewBox="0 0 2000 1500" style="enable-background:new 0 0 2000 1500;" xml:space="preserve">
<style type="text/css">
	.st0{fill:#8EB53F;}
	.st1{fill:#1B552A;}
	.st2{fill:#ED7C23;}
	.st3{fill:#D42D27;}
	.st4{fill:#1E97D4;}
	.st5{fill:#04508E;}
	.st6{fill:#FECF09;}
	.st7{fill:#F99F1B;}
</style>
<g id="Group_149" transform="translate(62.433 61.325)">
	<g id="Group_141" transform="translate(78.973 0)">
		<path id="Union_1" class="st0" d="M1169,501.4V370.5h-127.9c-70.6,0-127.9-58.6-127.9-130.9s57.3-130.9,127.9-130.9h255.8
			c70.6,0,127.9,58.6,127.9,130.9c0,0,0,0,0,0v261.8c0,72.3-57.3,130.9-127.9,130.9C1226.3,632.3,1169,573.7,1169,501.4L1169,501.4z
			"/>
		<ellipse id="Rectangle_66" class="st1" cx="1297.2" cy="501.7" rx="127.9" ry="130.9"/>
	</g>
	<g id="Group_146" transform="translate(78.973 78.973)">
		<g id="Group_142" transform="translate(0 0)">
			<path id="Union_1-2" class="st2" d="M1296.9,1189h-255.8c-70.6,0-127.9-58.6-127.9-130.9s57.3-130.9,127.9-130.9H1169V796.4
				c0-72.3,57.3-130.9,127.9-130.9c70.6,0,127.9,58.6,127.9,130.9v261.8C1424.8,1130.4,1367.6,1189,1296.9,1189
				C1296.9,1189,1296.9,1189,1296.9,1189z"/>
		</g>
		<path id="Rectangle_67" class="st3" d="M1041.8,1189.3L1041.8,1189.3c-70.6,0.2-128-58.3-128.2-130.6l0,0
			c-0.2-72.3,56.9-131,127.6-131.2l0,0c70.6-0.2,128,58.3,128.2,130.6l0,0C1169.5,1130.4,1112.4,1189.1,1041.8,1189.3z"/>
	</g>
	<g id="Group_144" transform="translate(0 78.973)">
		<g id="Group_143" transform="translate(0 0)">
			<path id="Union_1-3" class="st4" d="M627.4,797v130.9h127.9c70.6,0,127.9,58.6,127.9,130.9s-57.3,130.9-127.9,130.9H499.6
				c-70.6,0-127.9-58.6-127.9-130.9c0,0,0,0,0,0V797c0-72.3,57.3-130.9,127.9-130.9S627.4,724.7,627.4,797L627.4,797z"/>
			<path id="Rectangle_66-2" class="st5" d="M499.5,665.8L499.5,665.8c70.6,0.2,127.8,58.9,127.6,131.2l0,0
				c-0.2,72.3-57.6,130.7-128.2,130.6l0,0c-70.6-0.2-127.8-58.9-127.6-131.2l0,0C371.5,724.1,428.9,665.6,499.5,665.8z"/>
		</g>
	</g>
	<g id="Group_145" transform="translate(65.117 0) rotate(90)">
		<g id="Group_143-2" transform="translate(0 0)">
			<path id="Union_1-4" class="st6" d="M371.1-689.6v127.9H502c72.3,0,130.9,57.3,130.9,127.9S574.3-305.9,502-305.9H240.3
				c-72.3,0-130.9-57.3-130.9-127.9c0,0,0,0,0,0v-255.8c0-70.6,58.6-127.9,130.9-127.9S371.1-760.2,371.1-689.6L371.1-689.6z"/>
			<path id="Rectangle_66-3" class="st7" d="M240.3-817.8L240.3-817.8c72.3,0.2,130.7,57.6,130.6,128.2l0,0
				C370.6-619,311.9-561.8,239.6-562l0,0c-72.3-0.2-130.7-57.6-130.6-128.2l0,0C109.2-760.9,168-818,240.3-817.8z"/>
		</g>
	</g>
</g>
</svg>
